<svg width="16" height="16" version="1.1" viewBox="0 0 4.2333 4.2333" xmlns="http://www.w3.org/2000/svg"><g transform="translate(-63.276 -227.42)"><path d="m65.645 228.41a1.0188 1.0873 0 0 0-0.94913 0.6953 0.54858 0.54858 0 0 0-0.25999-0.0657 0.54858 0.54858 0 0 0-0.54859 0.54858 0.54858 0.54858 0 0 0 0.0059 0.0761 0.50511 0.50511 0 0 0-0.35299 0.48106 0.50511 0.50511 0 0 0 0.50511 0.50511h2.5256a0.67348 0.67348 0 0 0 0.67348-0.67349 0.67348 0.67348 0 0 0-0.59624-0.66861 1.0188 1.0873 0 0 0-1.0031-0.89837z" fill="#fff" style="paint-order:stroke markers fill"/></g></svg>
